<?xml version="1.0" encoding="utf-8"?>
<svg xmlns="http://www.w3.org/2000/svg" xmlns:xlink="http://www.w3.org/1999/xlink" width="600" height="400" viewBox="0 0 2400 1600">
<defs>
  <clipPath id="clip030">
    <rect x="0" y="0" width="2400" height="1600"/>
  </clipPath>
</defs>
<path clip-path="url(#clip030)" d="M0 1600 L2400 1600 L2400 0 L0 0  Z" fill="#ffffff" fill-rule="evenodd" fill-opacity="1"/>
<defs>
  <clipPath id="clip031">
    <rect x="480" y="0" width="1681" height="1600"/>
  </clipPath>
</defs>
<path clip-path="url(#clip030)" d="M193.936 1486.45 L2352.76 1486.45 L2352.76 47.2441 L193.936 47.2441  Z" fill="#ffffff" fill-rule="evenodd" fill-opacity="1"/>
<defs>
  <clipPath id="clip032">
    <rect x="193" y="47" width="2160" height="1440"/>
  </clipPath>
</defs>
<polyline clip-path="url(#clip032)" style="stroke:#000000; stroke-linecap:round; stroke-linejoin:round; stroke-width:2; stroke-opacity:0.1; fill:none" points="255.035,1486.45 255.035,47.2441 "/>
<polyline clip-path="url(#clip032)" style="stroke:#000000; stroke-linecap:round; stroke-linejoin:round; stroke-width:2; stroke-opacity:0.1; fill:none" points="764.19,1486.45 764.19,47.2441 "/>
<polyline clip-path="url(#clip032)" style="stroke:#000000; stroke-linecap:round; stroke-linejoin:round; stroke-width:2; stroke-opacity:0.1; fill:none" points="1273.35,1486.45 1273.35,47.2441 "/>
<polyline clip-path="url(#clip032)" style="stroke:#000000; stroke-linecap:round; stroke-linejoin:round; stroke-width:2; stroke-opacity:0.1; fill:none" points="1782.5,1486.45 1782.5,47.2441 "/>
<polyline clip-path="url(#clip032)" style="stroke:#000000; stroke-linecap:round; stroke-linejoin:round; stroke-width:2; stroke-opacity:0.1; fill:none" points="2291.66,1486.45 2291.66,47.2441 "/>
<polyline clip-path="url(#clip032)" style="stroke:#000000; stroke-linecap:round; stroke-linejoin:round; stroke-width:2; stroke-opacity:0.1; fill:none" points="193.936,1312.52 2352.76,1312.52 "/>
<polyline clip-path="url(#clip032)" style="stroke:#000000; stroke-linecap:round; stroke-linejoin:round; stroke-width:2; stroke-opacity:0.1; fill:none" points="193.936,986.025 2352.76,986.025 "/>
<polyline clip-path="url(#clip032)" style="stroke:#000000; stroke-linecap:round; stroke-linejoin:round; stroke-width:2; stroke-opacity:0.1; fill:none" points="193.936,659.528 2352.76,659.528 "/>
<polyline clip-path="url(#clip032)" style="stroke:#000000; stroke-linecap:round; stroke-linejoin:round; stroke-width:2; stroke-opacity:0.1; fill:none" points="193.936,333.03 2352.76,333.03 "/>
<polyline clip-path="url(#clip030)" style="stroke:#000000; stroke-linecap:round; stroke-linejoin:round; stroke-width:4; stroke-opacity:1; fill:none" points="193.936,1486.45 2352.76,1486.45 "/>
<polyline clip-path="url(#clip030)" style="stroke:#000000; stroke-linecap:round; stroke-linejoin:round; stroke-width:4; stroke-opacity:1; fill:none" points="255.035,1486.45 255.035,1467.55 "/>
<polyline clip-path="url(#clip030)" style="stroke:#000000; stroke-linecap:round; stroke-linejoin:round; stroke-width:4; stroke-opacity:1; fill:none" points="764.19,1486.45 764.19,1467.55 "/>
<polyline clip-path="url(#clip030)" style="stroke:#000000; stroke-linecap:round; stroke-linejoin:round; stroke-width:4; stroke-opacity:1; fill:none" points="1273.35,1486.45 1273.35,1467.55 "/>
<polyline clip-path="url(#clip030)" style="stroke:#000000; stroke-linecap:round; stroke-linejoin:round; stroke-width:4; stroke-opacity:1; fill:none" points="1782.5,1486.45 1782.5,1467.55 "/>
<polyline clip-path="url(#clip030)" style="stroke:#000000; stroke-linecap:round; stroke-linejoin:round; stroke-width:4; stroke-opacity:1; fill:none" points="2291.66,1486.45 2291.66,1467.55 "/>
<path clip-path="url(#clip030)" d="M200.683 1518.89 L194.341 1536.09 L207.049 1536.09 L200.683 1518.89 M198.044 1514.29 L203.345 1514.29 L216.516 1548.85 L211.655 1548.85 L208.507 1539.98 L192.929 1539.98 L189.78 1548.85 L184.85 1548.85 L198.044 1514.29 Z" fill="#000000" fill-rule="nonzero" fill-opacity="1" /><path clip-path="url(#clip030)" d="M220.984 1512.83 L230.799 1512.83 L230.799 1516.14 L225.243 1516.14 L225.243 1551.79 L230.799 1551.79 L230.799 1555.1 L220.984 1555.1 L220.984 1512.83 Z" fill="#000000" fill-rule="nonzero" fill-opacity="1" /><path clip-path="url(#clip030)" d="M241.285 1544.91 L248.924 1544.91 L248.924 1518.55 L240.613 1520.21 L240.613 1515.95 L248.877 1514.29 L253.553 1514.29 L253.553 1544.91 L261.192 1544.91 L261.192 1548.85 L241.285 1548.85 L241.285 1544.91 Z" fill="#000000" fill-rule="nonzero" fill-opacity="1" /><path clip-path="url(#clip030)" d="M271.123 1542.97 L276.007 1542.97 L276.007 1546.95 L272.211 1554.36 L269.224 1554.36 L271.123 1546.95 L271.123 1542.97 Z" fill="#000000" fill-rule="nonzero" fill-opacity="1" /><path clip-path="url(#clip030)" d="M286.516 1544.91 L294.155 1544.91 L294.155 1518.55 L285.845 1520.21 L285.845 1515.95 L294.109 1514.29 L298.784 1514.29 L298.784 1544.91 L306.423 1544.91 L306.423 1548.85 L286.516 1548.85 L286.516 1544.91 Z" fill="#000000" fill-rule="nonzero" fill-opacity="1" /><path clip-path="url(#clip030)" d="M325.219 1512.83 L325.219 1555.1 L315.405 1555.1 L315.405 1551.79 L320.937 1551.79 L320.937 1516.14 L315.405 1516.14 L315.405 1512.83 L325.219 1512.83 Z" fill="#000000" fill-rule="nonzero" fill-opacity="1" /><path clip-path="url(#clip030)" d="M709.839 1518.89 L703.496 1536.09 L716.204 1536.09 L709.839 1518.89 M707.2 1514.29 L712.501 1514.29 L725.672 1548.85 L720.811 1548.85 L717.663 1539.98 L702.084 1539.98 L698.936 1548.85 L694.006 1548.85 L707.2 1514.29 Z" fill="#000000" fill-rule="nonzero" fill-opacity="1" /><path clip-path="url(#clip030)" d="M730.14 1512.83 L739.954 1512.83 L739.954 1516.14 L734.399 1516.14 L734.399 1551.79 L739.954 1551.79 L739.954 1555.1 L730.14 1555.1 L730.14 1512.83 Z" fill="#000000" fill-rule="nonzero" fill-opacity="1" /><path clip-path="url(#clip030)" d="M750.44 1544.91 L758.079 1544.91 L758.079 1518.55 L749.769 1520.21 L749.769 1515.95 L758.033 1514.29 L762.709 1514.29 L762.709 1544.91 L770.348 1544.91 L770.348 1548.85 L750.44 1548.85 L750.44 1544.91 Z" fill="#000000" fill-rule="nonzero" fill-opacity="1" /><path clip-path="url(#clip030)" d="M780.278 1542.97 L785.162 1542.97 L785.162 1546.95 L781.366 1554.36 L778.38 1554.36 L780.278 1546.95 L780.278 1542.97 Z" fill="#000000" fill-rule="nonzero" fill-opacity="1" /><path clip-path="url(#clip030)" d="M798.889 1544.91 L815.209 1544.91 L815.209 1548.85 L793.264 1548.85 L793.264 1544.91 Q795.926 1542.16 800.51 1537.53 Q805.116 1532.88 806.297 1531.53 Q808.542 1529.01 809.422 1527.27 Q810.324 1525.51 810.324 1523.82 Q810.324 1521.07 808.38 1519.33 Q806.459 1517.6 803.357 1517.6 Q801.158 1517.6 798.704 1518.36 Q796.273 1519.13 793.496 1520.68 L793.496 1515.95 Q796.32 1514.82 798.773 1514.24 Q801.227 1513.66 803.264 1513.66 Q808.635 1513.66 811.829 1516.35 Q815.023 1519.03 815.023 1523.52 Q815.023 1525.65 814.213 1527.57 Q813.426 1529.47 811.32 1532.07 Q810.741 1532.74 807.639 1535.95 Q804.537 1539.15 798.889 1544.91 Z" fill="#000000" fill-rule="nonzero" fill-opacity="1" /><path clip-path="url(#clip030)" d="M834.375 1512.83 L834.375 1555.1 L824.56 1555.1 L824.56 1551.79 L830.093 1551.79 L830.093 1516.14 L824.56 1516.14 L824.56 1512.83 L834.375 1512.83 Z" fill="#000000" fill-rule="nonzero" fill-opacity="1" /><path clip-path="url(#clip030)" d="M1218.99 1518.89 L1212.65 1536.09 L1225.36 1536.09 L1218.99 1518.89 M1216.36 1514.29 L1221.66 1514.29 L1234.83 1548.85 L1229.97 1548.85 L1226.82 1539.98 L1211.24 1539.98 L1208.09 1548.85 L1203.16 1548.85 L1216.36 1514.29 Z" fill="#000000" fill-rule="nonzero" fill-opacity="1" /><path clip-path="url(#clip030)" d="M1239.3 1512.83 L1249.11 1512.83 L1249.11 1516.14 L1243.55 1516.14 L1243.55 1551.79 L1249.11 1551.79 L1249.11 1555.1 L1239.3 1555.1 L1239.3 1512.83 Z" fill="#000000" fill-rule="nonzero" fill-opacity="1" /><path clip-path="url(#clip030)" d="M1262.81 1544.91 L1279.13 1544.91 L1279.13 1548.85 L1257.19 1548.85 L1257.19 1544.91 Q1259.85 1542.16 1264.43 1537.53 Q1269.04 1532.88 1270.22 1531.53 Q1272.47 1529.01 1273.35 1527.27 Q1274.25 1525.51 1274.25 1523.82 Q1274.25 1521.07 1272.3 1519.33 Q1270.38 1517.6 1267.28 1517.6 Q1265.08 1517.6 1262.63 1518.36 Q1260.2 1519.13 1257.42 1520.68 L1257.42 1515.95 Q1260.24 1514.82 1262.7 1514.24 Q1265.15 1513.66 1267.19 1513.66 Q1272.56 1513.66 1275.75 1516.35 Q1278.95 1519.03 1278.95 1523.52 Q1278.95 1525.65 1278.14 1527.57 Q1277.35 1529.47 1275.24 1532.07 Q1274.67 1532.74 1271.56 1535.95 Q1268.46 1539.15 1262.81 1544.91 Z" fill="#000000" fill-rule="nonzero" fill-opacity="1" /><path clip-path="url(#clip030)" d="M1289.43 1542.97 L1294.32 1542.97 L1294.32 1546.95 L1290.52 1554.36 L1287.54 1554.36 L1289.43 1546.95 L1289.43 1542.97 Z" fill="#000000" fill-rule="nonzero" fill-opacity="1" /><path clip-path="url(#clip030)" d="M1304.83 1544.91 L1312.47 1544.91 L1312.47 1518.55 L1304.16 1520.21 L1304.16 1515.95 L1312.42 1514.29 L1317.1 1514.29 L1317.1 1544.91 L1324.73 1544.91 L1324.73 1548.85 L1304.83 1548.85 L1304.83 1544.91 Z" fill="#000000" fill-rule="nonzero" fill-opacity="1" /><path clip-path="url(#clip030)" d="M1343.53 1512.83 L1343.53 1555.1 L1333.72 1555.1 L1333.72 1551.79 L1339.25 1551.79 L1339.25 1516.14 L1333.72 1516.14 L1333.72 1512.83 L1343.53 1512.83 Z" fill="#000000" fill-rule="nonzero" fill-opacity="1" /><path clip-path="url(#clip030)" d="M1728.15 1518.89 L1721.81 1536.09 L1734.52 1536.09 L1728.15 1518.89 M1725.51 1514.29 L1730.81 1514.29 L1743.98 1548.85 L1739.12 1548.85 L1735.97 1539.98 L1720.4 1539.98 L1717.25 1548.85 L1712.32 1548.85 L1725.51 1514.29 Z" fill="#000000" fill-rule="nonzero" fill-opacity="1" /><path clip-path="url(#clip030)" d="M1748.45 1512.83 L1758.27 1512.83 L1758.27 1516.14 L1752.71 1516.14 L1752.71 1551.79 L1758.27 1551.79 L1758.27 1555.1 L1748.45 1555.1 L1748.45 1512.83 Z" fill="#000000" fill-rule="nonzero" fill-opacity="1" /><path clip-path="url(#clip030)" d="M1771.97 1544.91 L1788.29 1544.91 L1788.29 1548.85 L1766.34 1548.85 L1766.34 1544.91 Q1769.01 1542.16 1773.59 1537.53 Q1778.2 1532.88 1779.38 1531.53 Q1781.62 1529.01 1782.5 1527.27 Q1783.4 1525.51 1783.4 1523.82 Q1783.4 1521.07 1781.46 1519.33 Q1779.54 1517.6 1776.44 1517.6 Q1774.24 1517.6 1771.78 1518.36 Q1769.35 1519.13 1766.58 1520.68 L1766.58 1515.95 Q1769.4 1514.82 1771.85 1514.24 Q1774.31 1513.66 1776.34 1513.66 Q1781.71 1513.66 1784.91 1516.35 Q1788.1 1519.03 1788.1 1523.52 Q1788.1 1525.65 1787.29 1527.57 Q1786.51 1529.47 1784.4 1532.07 Q1783.82 1532.74 1780.72 1535.95 Q1777.62 1539.15 1771.97 1544.91 Z" fill="#000000" fill-rule="nonzero" fill-opacity="1" /><path clip-path="url(#clip030)" d="M1798.59 1542.97 L1803.47 1542.97 L1803.47 1546.95 L1799.68 1554.36 L1796.69 1554.36 L1798.59 1546.95 L1798.59 1542.97 Z" fill="#000000" fill-rule="nonzero" fill-opacity="1" /><path clip-path="url(#clip030)" d="M1817.2 1544.91 L1833.52 1544.91 L1833.52 1548.85 L1811.58 1548.85 L1811.58 1544.91 Q1814.24 1542.16 1818.82 1537.53 Q1823.43 1532.88 1824.61 1531.53 Q1826.85 1529.01 1827.73 1527.27 Q1828.64 1525.51 1828.64 1523.82 Q1828.64 1521.07 1826.69 1519.33 Q1824.77 1517.6 1821.67 1517.6 Q1819.47 1517.6 1817.02 1518.36 Q1814.58 1519.13 1811.81 1520.68 L1811.81 1515.95 Q1814.63 1514.82 1817.08 1514.24 Q1819.54 1513.66 1821.58 1513.66 Q1826.95 1513.66 1830.14 1516.35 Q1833.33 1519.03 1833.33 1523.52 Q1833.33 1525.65 1832.52 1527.57 Q1831.74 1529.47 1829.63 1532.07 Q1829.05 1532.74 1825.95 1535.95 Q1822.85 1539.15 1817.2 1544.91 Z" fill="#000000" fill-rule="nonzero" fill-opacity="1" /><path clip-path="url(#clip030)" d="M1852.69 1512.83 L1852.69 1555.1 L1842.87 1555.1 L1842.87 1551.79 L1848.4 1551.79 L1848.4 1516.14 L1842.87 1516.14 L1842.87 1512.83 L1852.69 1512.83 Z" fill="#000000" fill-rule="nonzero" fill-opacity="1" /><path clip-path="url(#clip030)" d="M2232.16 1512.83 L2236.41 1512.83 L2236.41 1548.85 L2232.16 1548.85 L2232.16 1512.83 Z" fill="#000000" fill-rule="nonzero" fill-opacity="1" /><path clip-path="url(#clip030)" d="M2255.37 1525.91 Q2251.95 1525.91 2249.96 1528.59 Q2247.97 1531.26 2247.97 1535.91 Q2247.97 1540.56 2249.93 1543.25 Q2251.92 1545.91 2255.37 1545.91 Q2258.78 1545.91 2260.77 1543.22 Q2262.76 1540.54 2262.76 1535.91 Q2262.76 1531.3 2260.77 1528.62 Q2258.78 1525.91 2255.37 1525.91 M2255.37 1522.3 Q2260.93 1522.3 2264.1 1525.91 Q2267.27 1529.52 2267.27 1535.91 Q2267.27 1542.27 2264.1 1545.91 Q2260.93 1549.52 2255.37 1549.52 Q2249.79 1549.52 2246.62 1545.91 Q2243.47 1542.27 2243.47 1535.91 Q2243.47 1529.52 2246.62 1525.91 Q2249.79 1522.3 2255.37 1522.3 Z" fill="#000000" fill-rule="nonzero" fill-opacity="1" /><path clip-path="url(#clip030)" d="M2291.39 1535.58 Q2291.39 1530.95 2289.47 1528.41 Q2287.57 1525.86 2284.12 1525.86 Q2280.7 1525.86 2278.78 1528.41 Q2276.88 1530.95 2276.88 1535.58 Q2276.88 1540.19 2278.78 1542.74 Q2280.7 1545.28 2284.12 1545.28 Q2287.57 1545.28 2289.47 1542.74 Q2291.39 1540.19 2291.39 1535.58 M2295.65 1545.63 Q2295.65 1552.25 2292.71 1555.47 Q2289.77 1558.71 2283.71 1558.71 Q2281.46 1558.71 2279.47 1558.36 Q2277.48 1558.04 2275.6 1557.34 L2275.6 1553.2 Q2277.48 1554.22 2279.31 1554.7 Q2281.14 1555.19 2283.03 1555.19 Q2287.22 1555.19 2289.31 1552.99 Q2291.39 1550.82 2291.39 1546.39 L2291.39 1544.29 Q2290.07 1546.58 2288.01 1547.71 Q2285.95 1548.85 2283.08 1548.85 Q2278.31 1548.85 2275.4 1545.21 Q2272.48 1541.58 2272.48 1535.58 Q2272.48 1529.57 2275.4 1525.93 Q2278.31 1522.3 2283.08 1522.3 Q2285.95 1522.3 2288.01 1523.43 Q2290.07 1524.57 2291.39 1526.86 L2291.39 1522.92 L2295.65 1522.92 L2295.65 1545.63 Z" fill="#000000" fill-rule="nonzero" fill-opacity="1" /><path clip-path="url(#clip030)" d="M2324.12 1556.72 L2324.12 1560.03 L2299.49 1560.03 L2299.49 1556.72 L2324.12 1556.72 Z" fill="#000000" fill-rule="nonzero" fill-opacity="1" /><path clip-path="url(#clip030)" d="M2346.74 1535.91 Q2346.74 1531.21 2344.79 1528.55 Q2342.87 1525.86 2339.49 1525.86 Q2336.11 1525.86 2334.17 1528.55 Q2332.25 1531.21 2332.25 1535.91 Q2332.25 1540.61 2334.17 1543.29 Q2336.11 1545.95 2339.49 1545.95 Q2342.87 1545.95 2344.79 1543.29 Q2346.74 1540.61 2346.74 1535.91 M2332.25 1526.86 Q2333.59 1524.54 2335.63 1523.43 Q2337.69 1522.3 2340.53 1522.3 Q2345.26 1522.3 2348.2 1526.05 Q2351.16 1529.8 2351.16 1535.91 Q2351.16 1542.02 2348.2 1545.77 Q2345.26 1549.52 2340.53 1549.52 Q2337.69 1549.52 2335.63 1548.41 Q2333.59 1547.27 2332.25 1544.96 L2332.25 1548.85 L2327.96 1548.85 L2327.96 1512.83 L2332.25 1512.83 L2332.25 1526.86 Z" fill="#000000" fill-rule="nonzero" fill-opacity="1" /><polyline clip-path="url(#clip030)" style="stroke:#000000; stroke-linecap:round; stroke-linejoin:round; stroke-width:4; stroke-opacity:1; fill:none" points="193.936,1486.45 193.936,47.2441 "/>
<polyline clip-path="url(#clip030)" style="stroke:#000000; stroke-linecap:round; stroke-linejoin:round; stroke-width:4; stroke-opacity:1; fill:none" points="193.936,1312.52 212.834,1312.52 "/>
<polyline clip-path="url(#clip030)" style="stroke:#000000; stroke-linecap:round; stroke-linejoin:round; stroke-width:4; stroke-opacity:1; fill:none" points="193.936,986.025 212.834,986.025 "/>
<polyline clip-path="url(#clip030)" style="stroke:#000000; stroke-linecap:round; stroke-linejoin:round; stroke-width:4; stroke-opacity:1; fill:none" points="193.936,659.528 212.834,659.528 "/>
<polyline clip-path="url(#clip030)" style="stroke:#000000; stroke-linecap:round; stroke-linejoin:round; stroke-width:4; stroke-opacity:1; fill:none" points="193.936,333.03 212.834,333.03 "/>
<path clip-path="url(#clip030)" d="M50.9921 1312.97 L80.6679 1312.97 L80.6679 1316.91 L50.9921 1316.91 L50.9921 1312.97 Z" fill="#000000" fill-rule="nonzero" fill-opacity="1" /><path clip-path="url(#clip030)" d="M91.5706 1325.87 L99.2095 1325.87 L99.2095 1299.5 L90.8993 1301.17 L90.8993 1296.91 L99.1632 1295.24 L103.839 1295.24 L103.839 1325.87 L111.478 1325.87 L111.478 1329.8 L91.5706 1329.8 L91.5706 1325.87 Z" fill="#000000" fill-rule="nonzero" fill-opacity="1" /><path clip-path="url(#clip030)" d="M120.922 1323.92 L125.807 1323.92 L125.807 1329.8 L120.922 1329.8 L120.922 1323.92 Z" fill="#000000" fill-rule="nonzero" fill-opacity="1" /><path clip-path="url(#clip030)" d="M145.992 1298.32 Q142.381 1298.32 140.552 1301.89 Q138.746 1305.43 138.746 1312.56 Q138.746 1319.66 140.552 1323.23 Q142.381 1326.77 145.992 1326.77 Q149.626 1326.77 151.431 1323.23 Q153.26 1319.66 153.26 1312.56 Q153.26 1305.43 151.431 1301.89 Q149.626 1298.32 145.992 1298.32 M145.992 1294.62 Q151.802 1294.62 154.857 1299.22 Q157.936 1303.81 157.936 1312.56 Q157.936 1321.28 154.857 1325.89 Q151.802 1330.47 145.992 1330.47 Q140.181 1330.47 137.103 1325.89 Q134.047 1321.28 134.047 1312.56 Q134.047 1303.81 137.103 1299.22 Q140.181 1294.62 145.992 1294.62 Z" fill="#000000" fill-rule="nonzero" fill-opacity="1" /><path clip-path="url(#clip030)" d="M51.9875 986.476 L81.6633 986.476 L81.6633 990.412 L51.9875 990.412 L51.9875 986.476 Z" fill="#000000" fill-rule="nonzero" fill-opacity="1" /><path clip-path="url(#clip030)" d="M101.756 971.824 Q98.1447 971.824 96.316 975.389 Q94.5104 978.93 94.5104 986.06 Q94.5104 993.166 96.316 996.731 Q98.1447 1000.27 101.756 1000.27 Q105.39 1000.27 107.196 996.731 Q109.024 993.166 109.024 986.06 Q109.024 978.93 107.196 975.389 Q105.39 971.824 101.756 971.824 M101.756 968.12 Q107.566 968.12 110.621 972.727 Q113.7 977.31 113.7 986.06 Q113.7 994.787 110.621 999.393 Q107.566 1003.98 101.756 1003.98 Q95.9456 1003.98 92.8669 999.393 Q89.8114 994.787 89.8114 986.06 Q89.8114 977.31 92.8669 972.727 Q95.9456 968.12 101.756 968.12 Z" fill="#000000" fill-rule="nonzero" fill-opacity="1" /><path clip-path="url(#clip030)" d="M121.918 997.425 L126.802 997.425 L126.802 1003.31 L121.918 1003.31 L121.918 997.425 Z" fill="#000000" fill-rule="nonzero" fill-opacity="1" /><path clip-path="url(#clip030)" d="M137.033 968.745 L155.39 968.745 L155.39 972.68 L141.316 972.68 L141.316 981.152 Q142.334 980.805 143.353 980.643 Q144.371 980.458 145.39 980.458 Q151.177 980.458 154.556 983.629 Q157.936 986.801 157.936 992.217 Q157.936 997.796 154.464 1000.9 Q150.992 1003.98 144.672 1003.98 Q142.496 1003.98 140.228 1003.61 Q137.982 1003.24 135.575 1002.49 L135.575 997.796 Q137.658 998.93 139.881 999.486 Q142.103 1000.04 144.58 1000.04 Q148.584 1000.04 150.922 997.935 Q153.26 995.828 153.26 992.217 Q153.26 988.606 150.922 986.5 Q148.584 984.393 144.58 984.393 Q142.705 984.393 140.83 984.81 Q138.978 985.226 137.033 986.106 L137.033 968.745 Z" fill="#000000" fill-rule="nonzero" fill-opacity="1" /><path clip-path="url(#clip030)" d="M100.76 645.326 Q97.1493 645.326 95.3206 648.891 Q93.515 652.433 93.515 659.562 Q93.515 666.669 95.3206 670.234 Q97.1493 673.775 100.76 673.775 Q104.395 673.775 106.2 670.234 Q108.029 666.669 108.029 659.562 Q108.029 652.433 106.2 648.891 Q104.395 645.326 100.76 645.326 M100.76 641.623 Q106.571 641.623 109.626 646.229 Q112.705 650.812 112.705 659.562 Q112.705 668.289 109.626 672.896 Q106.571 677.479 100.76 677.479 Q94.9502 677.479 91.8715 672.896 Q88.816 668.289 88.816 659.562 Q88.816 650.812 91.8715 646.229 Q94.9502 641.623 100.76 641.623 Z" fill="#000000" fill-rule="nonzero" fill-opacity="1" /><path clip-path="url(#clip030)" d="M120.922 670.928 L125.807 670.928 L125.807 676.808 L120.922 676.808 L120.922 670.928 Z" fill="#000000" fill-rule="nonzero" fill-opacity="1" /><path clip-path="url(#clip030)" d="M145.992 645.326 Q142.381 645.326 140.552 648.891 Q138.746 652.433 138.746 659.562 Q138.746 666.669 140.552 670.234 Q142.381 673.775 145.992 673.775 Q149.626 673.775 151.431 670.234 Q153.26 666.669 153.26 659.562 Q153.26 652.433 151.431 648.891 Q149.626 645.326 145.992 645.326 M145.992 641.623 Q151.802 641.623 154.857 646.229 Q157.936 650.812 157.936 659.562 Q157.936 668.289 154.857 672.896 Q151.802 677.479 145.992 677.479 Q140.181 677.479 137.103 672.896 Q134.047 668.289 134.047 659.562 Q134.047 650.812 137.103 646.229 Q140.181 641.623 145.992 641.623 Z" fill="#000000" fill-rule="nonzero" fill-opacity="1" /><path clip-path="url(#clip030)" d="M101.756 318.829 Q98.1447 318.829 96.316 322.394 Q94.5104 325.935 94.5104 333.065 Q94.5104 340.171 96.316 343.736 Q98.1447 347.278 101.756 347.278 Q105.39 347.278 107.196 343.736 Q109.024 340.171 109.024 333.065 Q109.024 325.935 107.196 322.394 Q105.39 318.829 101.756 318.829 M101.756 315.125 Q107.566 315.125 110.621 319.732 Q113.7 324.315 113.7 333.065 Q113.7 341.792 110.621 346.398 Q107.566 350.981 101.756 350.981 Q95.9456 350.981 92.8669 346.398 Q89.8114 341.792 89.8114 333.065 Q89.8114 324.315 92.8669 319.732 Q95.9456 315.125 101.756 315.125 Z" fill="#000000" fill-rule="nonzero" fill-opacity="1" /><path clip-path="url(#clip030)" d="M121.918 344.431 L126.802 344.431 L126.802 350.31 L121.918 350.31 L121.918 344.431 Z" fill="#000000" fill-rule="nonzero" fill-opacity="1" /><path clip-path="url(#clip030)" d="M137.033 315.75 L155.39 315.75 L155.39 319.685 L141.316 319.685 L141.316 328.157 Q142.334 327.81 143.353 327.648 Q144.371 327.463 145.39 327.463 Q151.177 327.463 154.556 330.634 Q157.936 333.806 157.936 339.222 Q157.936 344.801 154.464 347.903 Q150.992 350.981 144.672 350.981 Q142.496 350.981 140.228 350.611 Q137.982 350.241 135.575 349.5 L135.575 344.801 Q137.658 345.935 139.881 346.491 Q142.103 347.046 144.58 347.046 Q148.584 347.046 150.922 344.94 Q153.26 342.833 153.26 339.222 Q153.26 335.611 150.922 333.505 Q148.584 331.398 144.58 331.398 Q142.705 331.398 140.83 331.815 Q138.978 332.232 137.033 333.111 L137.033 315.75 Z" fill="#000000" fill-rule="nonzero" fill-opacity="1" /><polyline clip-path="url(#clip032)" style="stroke:#000000; stroke-linecap:round; stroke-linejoin:round; stroke-width:4; stroke-opacity:1; fill:none" points="255.035,164.661 255.035,87.9763 "/>
<polyline clip-path="url(#clip032)" style="stroke:#000000; stroke-linecap:round; stroke-linejoin:round; stroke-width:4; stroke-opacity:1; fill:none" points="764.19,757.721 764.19,681.087 "/>
<polyline clip-path="url(#clip032)" style="stroke:#000000; stroke-linecap:round; stroke-linejoin:round; stroke-width:4; stroke-opacity:1; fill:none" points="1273.35,832.062 1273.35,696.636 "/>
<polyline clip-path="url(#clip032)" style="stroke:#000000; stroke-linecap:round; stroke-linejoin:round; stroke-width:4; stroke-opacity:1; fill:none" points="1782.5,459.76 1782.5,324.433 "/>
<polyline clip-path="url(#clip032)" style="stroke:#000000; stroke-linecap:round; stroke-linejoin:round; stroke-width:4; stroke-opacity:1; fill:none" points="2291.66,1409.42 2291.66,1334.8 "/>
<line clip-path="url(#clip032)" x1="271.035" y1="164.661" x2="239.035" y2="164.661" style="stroke:#000000; stroke-width:4; stroke-opacity:1"/>
<line clip-path="url(#clip032)" x1="271.035" y1="87.9763" x2="239.035" y2="87.9763" style="stroke:#000000; stroke-width:4; stroke-opacity:1"/>
<line clip-path="url(#clip032)" x1="780.19" y1="757.721" x2="748.19" y2="757.721" style="stroke:#000000; stroke-width:4; stroke-opacity:1"/>
<line clip-path="url(#clip032)" x1="780.19" y1="681.087" x2="748.19" y2="681.087" style="stroke:#000000; stroke-width:4; stroke-opacity:1"/>
<line clip-path="url(#clip032)" x1="1289.35" y1="832.062" x2="1257.35" y2="832.062" style="stroke:#000000; stroke-width:4; stroke-opacity:1"/>
<line clip-path="url(#clip032)" x1="1289.35" y1="696.636" x2="1257.35" y2="696.636" style="stroke:#000000; stroke-width:4; stroke-opacity:1"/>
<line clip-path="url(#clip032)" x1="1798.5" y1="459.76" x2="1766.5" y2="459.76" style="stroke:#000000; stroke-width:4; stroke-opacity:1"/>
<line clip-path="url(#clip032)" x1="1798.5" y1="324.433" x2="1766.5" y2="324.433" style="stroke:#000000; stroke-width:4; stroke-opacity:1"/>
<line clip-path="url(#clip032)" x1="2307.66" y1="1409.42" x2="2275.66" y2="1409.42" style="stroke:#000000; stroke-width:4; stroke-opacity:1"/>
<line clip-path="url(#clip032)" x1="2307.66" y1="1334.8" x2="2275.66" y2="1334.8" style="stroke:#000000; stroke-width:4; stroke-opacity:1"/>
<circle clip-path="url(#clip032)" cx="255.035" cy="126.319" r="14.4" fill="#009af9" fill-rule="evenodd" fill-opacity="1" stroke="#000000" stroke-opacity="1" stroke-width="3.2"/>
<circle clip-path="url(#clip032)" cx="764.19" cy="719.404" r="14.4" fill="#009af9" fill-rule="evenodd" fill-opacity="1" stroke="#000000" stroke-opacity="1" stroke-width="3.2"/>
<circle clip-path="url(#clip032)" cx="1273.35" cy="764.349" r="14.4" fill="#009af9" fill-rule="evenodd" fill-opacity="1" stroke="#000000" stroke-opacity="1" stroke-width="3.2"/>
<circle clip-path="url(#clip032)" cx="1782.5" cy="392.097" r="14.4" fill="#009af9" fill-rule="evenodd" fill-opacity="1" stroke="#000000" stroke-opacity="1" stroke-width="3.2"/>
<circle clip-path="url(#clip032)" cx="2291.66" cy="1372.11" r="14.4" fill="#009af9" fill-rule="evenodd" fill-opacity="1" stroke="#000000" stroke-opacity="1" stroke-width="3.2"/>
<circle clip-path="url(#clip032)" cx="255.035" cy="137.132" r="14.4" fill="#e26f46" fill-rule="evenodd" fill-opacity="1" stroke="#000000" stroke-opacity="1" stroke-width="3.2"/>
<circle clip-path="url(#clip032)" cx="764.19" cy="724.827" r="14.4" fill="#e26f46" fill-rule="evenodd" fill-opacity="1" stroke="#000000" stroke-opacity="1" stroke-width="3.2"/>
<circle clip-path="url(#clip032)" cx="1273.35" cy="790.127" r="14.4" fill="#e26f46" fill-rule="evenodd" fill-opacity="1" stroke="#000000" stroke-opacity="1" stroke-width="3.2"/>
<circle clip-path="url(#clip032)" cx="1782.5" cy="333.03" r="14.4" fill="#e26f46" fill-rule="evenodd" fill-opacity="1" stroke="#000000" stroke-opacity="1" stroke-width="3.2"/>
<circle clip-path="url(#clip032)" cx="2291.66" cy="1445.72" r="14.4" fill="#e26f46" fill-rule="evenodd" fill-opacity="1" stroke="#000000" stroke-opacity="1" stroke-width="3.2"/>
<path clip-path="url(#clip030)" d="M1822.04 250.738 L2280.8 250.738 L2280.8 95.2176 L1822.04 95.2176  Z" fill="#ffffff" fill-rule="evenodd" fill-opacity="1"/>
<polyline clip-path="url(#clip030)" style="stroke:#000000; stroke-linecap:round; stroke-linejoin:round; stroke-width:4; stroke-opacity:1; fill:none" points="1822.04,250.738 2280.8,250.738 2280.8,95.2176 1822.04,95.2176 1822.04,250.738 "/>
<circle clip-path="url(#clip030)" cx="1917.99" cy="147.058" r="20.48" fill="#009af9" fill-rule="evenodd" fill-opacity="1" stroke="#000000" stroke-opacity="1" stroke-width="4.55111"/>
<path clip-path="url(#clip030)" d="M2013.94 129.778 L2033.8 129.778 L2033.8 133.713 L2018.62 133.713 L2018.62 143.898 L2032.32 143.898 L2032.32 147.833 L2018.62 147.833 L2018.62 164.338 L2013.94 164.338 L2013.94 129.778 Z" fill="#000000" fill-rule="nonzero" fill-opacity="1" /><path clip-path="url(#clip030)" d="M2037.57 138.412 L2041.83 138.412 L2041.83 164.338 L2037.57 164.338 L2037.57 138.412 M2037.57 128.319 L2041.83 128.319 L2041.83 133.713 L2037.57 133.713 L2037.57 128.319 Z" fill="#000000" fill-rule="nonzero" fill-opacity="1" /><path clip-path="url(#clip030)" d="M2054.96 131.051 L2054.96 138.412 L2063.73 138.412 L2063.73 141.722 L2054.96 141.722 L2054.96 155.796 Q2054.96 158.967 2055.81 159.87 Q2056.69 160.773 2059.36 160.773 L2063.73 160.773 L2063.73 164.338 L2059.36 164.338 Q2054.43 164.338 2052.55 162.509 Q2050.68 160.657 2050.68 155.796 L2050.68 141.722 L2047.55 141.722 L2047.55 138.412 L2050.68 138.412 L2050.68 131.051 L2054.96 131.051 Z" fill="#000000" fill-rule="nonzero" fill-opacity="1" /><path clip-path="url(#clip030)" d="M2073.55 131.051 L2073.55 138.412 L2082.32 138.412 L2082.32 141.722 L2073.55 141.722 L2073.55 155.796 Q2073.55 158.967 2074.4 159.87 Q2075.28 160.773 2077.94 160.773 L2082.32 160.773 L2082.32 164.338 L2077.94 164.338 Q2073.01 164.338 2071.14 162.509 Q2069.26 160.657 2069.26 155.796 L2069.26 141.722 L2066.14 141.722 L2066.14 138.412 L2069.26 138.412 L2069.26 131.051 L2073.55 131.051 Z" fill="#000000" fill-rule="nonzero" fill-opacity="1" /><path clip-path="url(#clip030)" d="M2110.1 150.31 L2110.1 152.393 L2090.51 152.393 Q2090.79 156.791 2093.15 159.106 Q2095.54 161.398 2099.77 161.398 Q2102.23 161.398 2104.52 160.796 Q2106.83 160.194 2109.1 158.99 L2109.1 163.018 Q2106.81 163.99 2104.4 164.5 Q2101.99 165.009 2099.52 165.009 Q2093.31 165.009 2089.68 161.398 Q2086.07 157.787 2086.07 151.629 Q2086.07 145.264 2089.49 141.537 Q2092.94 137.787 2098.78 137.787 Q2104.01 137.787 2107.04 141.166 Q2110.1 144.523 2110.1 150.31 M2105.84 149.06 Q2105.79 145.565 2103.87 143.481 Q2101.97 141.398 2098.82 141.398 Q2095.26 141.398 2093.11 143.412 Q2090.98 145.426 2090.65 149.083 L2105.84 149.06 Z" fill="#000000" fill-rule="nonzero" fill-opacity="1" /><path clip-path="url(#clip030)" d="M2134.15 142.347 L2134.15 128.319 L2138.41 128.319 L2138.41 164.338 L2134.15 164.338 L2134.15 160.449 Q2132.8 162.763 2130.74 163.898 Q2128.71 165.009 2125.84 165.009 Q2121.14 165.009 2118.17 161.259 Q2115.24 157.509 2115.24 151.398 Q2115.24 145.287 2118.17 141.537 Q2121.14 137.787 2125.84 137.787 Q2128.71 137.787 2130.74 138.921 Q2132.8 140.032 2134.15 142.347 M2119.63 151.398 Q2119.63 156.097 2121.55 158.782 Q2123.5 161.444 2126.88 161.444 Q2130.26 161.444 2132.2 158.782 Q2134.15 156.097 2134.15 151.398 Q2134.15 146.699 2132.2 144.037 Q2130.26 141.352 2126.88 141.352 Q2123.5 141.352 2121.55 144.037 Q2119.63 146.699 2119.63 151.398 Z" fill="#000000" fill-rule="nonzero" fill-opacity="1" /><circle clip-path="url(#clip030)" cx="1917.99" cy="198.898" r="20.48" fill="#e26f46" fill-rule="evenodd" fill-opacity="1" stroke="#000000" stroke-opacity="1" stroke-width="4.55111"/>
<path clip-path="url(#clip030)" d="M2013.94 181.618 L2043.18 181.618 L2043.18 185.553 L2030.91 185.553 L2030.91 216.178 L2026.21 216.178 L2026.21 185.553 L2013.94 185.553 L2013.94 181.618 Z" fill="#000000" fill-rule="nonzero" fill-opacity="1" /><path clip-path="url(#clip030)" d="M2055.56 194.233 Q2054.84 193.817 2053.99 193.631 Q2053.15 193.423 2052.13 193.423 Q2048.52 193.423 2046.58 195.784 Q2044.66 198.122 2044.66 202.52 L2044.66 216.178 L2040.37 216.178 L2040.37 190.252 L2044.66 190.252 L2044.66 194.28 Q2046 191.918 2048.15 190.784 Q2050.3 189.627 2053.38 189.627 Q2053.82 189.627 2054.36 189.696 Q2054.89 189.743 2055.54 189.858 L2055.56 194.233 Z" fill="#000000" fill-rule="nonzero" fill-opacity="1" /><path clip-path="url(#clip030)" d="M2059.59 205.946 L2059.59 190.252 L2063.85 190.252 L2063.85 205.784 Q2063.85 209.465 2065.28 211.316 Q2066.72 213.145 2069.59 213.145 Q2073.04 213.145 2075.03 210.946 Q2077.04 208.747 2077.04 204.951 L2077.04 190.252 L2081.3 190.252 L2081.3 216.178 L2077.04 216.178 L2077.04 212.196 Q2075.49 214.557 2073.43 215.715 Q2071.39 216.849 2068.68 216.849 Q2064.22 216.849 2061.9 214.071 Q2059.59 211.293 2059.59 205.946 M2070.3 189.627 L2070.3 189.627 Z" fill="#000000" fill-rule="nonzero" fill-opacity="1" /><path clip-path="url(#clip030)" d="M2112.25 202.15 L2112.25 204.233 L2092.67 204.233 Q2092.94 208.631 2095.3 210.946 Q2097.69 213.238 2101.92 213.238 Q2104.38 213.238 2106.67 212.636 Q2108.99 212.034 2111.25 210.83 L2111.25 214.858 Q2108.96 215.83 2106.55 216.34 Q2104.15 216.849 2101.67 216.849 Q2095.47 216.849 2091.83 213.238 Q2088.22 209.627 2088.22 203.469 Q2088.22 197.104 2091.65 193.377 Q2095.1 189.627 2100.93 189.627 Q2106.16 189.627 2109.19 193.006 Q2112.25 196.363 2112.25 202.15 M2107.99 200.9 Q2107.94 197.405 2106.02 195.321 Q2104.12 193.238 2100.98 193.238 Q2097.41 193.238 2095.26 195.252 Q2093.13 197.266 2092.8 200.923 L2107.99 200.9 Z" fill="#000000" fill-rule="nonzero" fill-opacity="1" /><path clip-path="url(#clip030)" d="M2131.25 190.252 L2135.77 190.252 L2143.87 212.011 L2151.97 190.252 L2156.48 190.252 L2146.76 216.178 L2140.98 216.178 L2131.25 190.252 Z" fill="#000000" fill-rule="nonzero" fill-opacity="1" /><path clip-path="url(#clip030)" d="M2174.15 203.145 Q2168.98 203.145 2166.99 204.326 Q2165 205.506 2165 208.354 Q2165 210.622 2166.48 211.965 Q2167.99 213.284 2170.56 213.284 Q2174.1 213.284 2176.23 210.784 Q2178.38 208.261 2178.38 204.094 L2178.38 203.145 L2174.15 203.145 M2182.64 201.386 L2182.64 216.178 L2178.38 216.178 L2178.38 212.242 Q2176.92 214.603 2174.75 215.738 Q2172.57 216.849 2169.42 216.849 Q2165.44 216.849 2163.08 214.627 Q2160.74 212.381 2160.74 208.631 Q2160.74 204.256 2163.66 202.034 Q2166.6 199.812 2172.41 199.812 L2178.38 199.812 L2178.38 199.395 Q2178.38 196.455 2176.44 194.858 Q2174.52 193.238 2171.02 193.238 Q2168.8 193.238 2166.69 193.77 Q2164.59 194.303 2162.64 195.367 L2162.64 191.432 Q2164.98 190.53 2167.18 190.09 Q2169.38 189.627 2171.46 189.627 Q2177.09 189.627 2179.86 192.543 Q2182.64 195.46 2182.64 201.386 Z" fill="#000000" fill-rule="nonzero" fill-opacity="1" /><path clip-path="url(#clip030)" d="M2191.42 180.159 L2195.67 180.159 L2195.67 216.178 L2191.42 216.178 L2191.42 180.159 Z" fill="#000000" fill-rule="nonzero" fill-opacity="1" /><path clip-path="url(#clip030)" d="M2204.15 205.946 L2204.15 190.252 L2208.41 190.252 L2208.41 205.784 Q2208.41 209.465 2209.84 211.316 Q2211.28 213.145 2214.15 213.145 Q2217.6 213.145 2219.59 210.946 Q2221.6 208.747 2221.6 204.951 L2221.6 190.252 L2225.86 190.252 L2225.86 216.178 L2221.6 216.178 L2221.6 212.196 Q2220.05 214.557 2217.99 215.715 Q2215.95 216.849 2213.24 216.849 Q2208.78 216.849 2206.46 214.071 Q2204.15 211.293 2204.15 205.946 M2214.86 189.627 L2214.86 189.627 Z" fill="#000000" fill-rule="nonzero" fill-opacity="1" /><path clip-path="url(#clip030)" d="M2256.81 202.15 L2256.81 204.233 L2237.23 204.233 Q2237.5 208.631 2239.86 210.946 Q2242.25 213.238 2246.48 213.238 Q2248.94 213.238 2251.23 212.636 Q2253.54 212.034 2255.81 210.83 L2255.81 214.858 Q2253.52 215.83 2251.11 216.34 Q2248.71 216.849 2246.23 216.849 Q2240.03 216.849 2236.39 213.238 Q2232.78 209.627 2232.78 203.469 Q2232.78 197.104 2236.21 193.377 Q2239.66 189.627 2245.49 189.627 Q2250.72 189.627 2253.75 193.006 Q2256.81 196.363 2256.81 202.15 M2252.55 200.9 Q2252.5 197.405 2250.58 195.321 Q2248.68 193.238 2245.54 193.238 Q2241.97 193.238 2239.82 195.252 Q2237.69 197.266 2237.36 200.923 L2252.55 200.9 Z" fill="#000000" fill-rule="nonzero" fill-opacity="1" /></svg>
